#!OML:ASF I:\golf\golf\golf 2\Subject 1\2002-09-07\Subject1.ASF
:FULLY-SPECIFIED
:DEGREES
348
root -6.53591 18.0172 -3.96509 -164.278 -2.07426 -174.177
lowerback -8.32126 14.8276 13.3168
upperback -12.8773 17.0031 2.61881
thorax -6.46758 6.4182 -3.08027
lowerneck -7.29014 -18.0513 -4.37595
upperneck 12.0143 -24.4184 0.599822
head 5.38884 -12.2151 -0.937624
rclavicle -8.70677e-014 -1.46306e-013
rhumerus 99.5217 29.7905 -55.1591
rradius 76.953
rwrist 7.18736
rhand -48.5699 38.4777
rfingers 7.12502
rthumb -21.2159 9.6187
lclavicle -8.70677e-014 -1.46306e-013
lhumerus 65.241 18.1341 62.512
lradius 81.3894
lwrist 5.74431
lhand -33.6434 13.9552
lfingers 7.12502
lthumb -186.835 -136.175
rfemur 11.0349 -9.05521 21.8045
rtibia 18.6583
rfoot 25.9376 -26.6286
rtoes 17.8232
lfemur -28.1581 -15.5541 -13.4072
ltibia 22.9962
lfoot 53.0452 -31.9707
ltoes 46.4763
349
root -6.5301 18.0196 -3.95589 -164.22 -1.95496 -174
lowerback -8.25865 14.8476 13.5213
upperback -12.9166 17.0269 2.56873
thorax -6.47638 6.40415 -3.23371
lowerneck -7.03215 -17.9622 -4.24448
upperneck 11.9994 -24.3195 0.510641
head 5.31448 -12.1774 -0.938427
rclavicle 8.8658e-014 -2.70347e-014
rhumerus 98.5227 29.4212 -55.7708
rradius 76.0605
rwrist 6.57326
rhand -48.5492 37.7732
rfingers 7.12502
rthumb -21.1961 8.91198
lclavicle 8.8658e-014 -2.70347e-014
lhumerus 65.1598 17.2351 62.0361
lradius 79.9987
lwrist 6.46086
lhand -33.1606 13.8195
lfingers 7.12502
lthumb -186.369 -136.296
rfemur 10.9093 -8.98597 22.0488
rtibia 18.7443
rfoot 26.028 -26.0087
rtoes 15.6979
lfemur -28.2664 -15.4456 -13.1565
ltibia 22.9684
lfoot 53.0136 -31.9884
ltoes 46.0547
350
root -6.52142 18.0197 -3.94632 -164.194 -1.76477 -173.958
lowerback -8.13125 14.9887 13.5205
upperback -11.9966 17.4742 1.74958
thorax -5.18373 6.88124 -3.9236
lowerneck -12.349 -18.3763 -0.780973
upperneck 13.2525 -24.9273 -0.880541
head 5.96395 -12.2967 -2.29414
rclavicle -7.07673e-014 -1.00187e-013
rhumerus 98.8028 26.5811 -55.94
rradius 75.2529
rwrist 6.1363
rhand -48.1903 37.1107
rfingers 7.12502
rthumb -20.8513 8.21122
lclavicle -7.07673e-014 -1.00187e-013
lhumerus 68.2672 15.9831 62.3867
lradius 78.5364
lwrist 6.82272
lhand -32.9035 13.7464
lfingers 7.12502
lthumb -186.121 -136.362
rfemur 10.8294 -8.83151 22.1486
rtibia 18.8156
rfoot 26.0837 -25.4618
rtoes 14.4121
lfemur -28.3078 -15.3288 -13.0685
ltibia 22.9392
lfoot 53.1055 -31.5364
ltoes 46.2622
351
root -6.51253 18.0165 -3.93596 -164.24 -1.53402 -174.132
lowerback -8.14569 14.5463 13.2332
upperback -12.527 16.7055 2.79214
thorax -6.27486 6.33632 -2.91771
lowerneck -7.2421 -17.5482 -4.17411
upperneck 11.8167 -23.7037 0.456872
head 5.26261 -11.8679 -0.916829
rclavicle 6.91771e-014 -1.59028e-015
rhumerus 97.4524 29.5333 -56.7665
rradius 74.2341
rwrist 5.44086
rhand -47.5512 36.4825
rfingers 7.12502
rthumb -20.2371 7.51676
lclavicle 6.91771e-014 -1.59028e-015
lhumerus 65.0238 16.1931 61.0745
lradius 77.0596
lwrist 7.31095
lhand -32.6927 13.7294
lfingers 7.12502
lthumb -185.918 -136.373
rfemur 10.8504 -8.74967 21.9731
rtibia 18.924
rfoot 25.6173 -25.4999
rtoes 15.6455
lfemur -28.2368 -15.2304 -13.2605
ltibia 22.8727
lfoot 53.2204 -30.8351
ltoes 46.5262
352
root -6.50534 18.015 -3.92269 -164.313 -1.3372 -174.194
lowerback -8.03284 14.4031 13.1135
upperback -12.3421 16.5687 2.88394
thorax -6.20013 6.31051 -2.80012
lowerneck -7.30456 -17.3574 -3.9248
upperneck 11.7116 -23.4212 0.259106
head 5.18107 -11.7315 -0.969585
rclavicle -2.10712e-014 7.63333e-014
rhumerus 96.8209 29.6524 -57.441
rradius 73.1896
rwrist 5.07331
rhand -46.8235 36.0761
rfingers 7.12502
rthumb -19.5375 7.03777
lclavicle -2.10712e-014 7.63333e-014
lhumerus 64.9505 15.5567 60.5511
lradius 75.7145
lwrist 7.97544
lhand -32.2464 13.869
lfingers 7.12502
lthumb -185.487 -136.222
rfemur 10.8373 -8.66225 21.913
rtibia 19.1104
rfoot 25.0979 -25.7666
rtoes 17.1167
lfemur -28.1362 -15.1396 -13.3262
ltibia 22.7607
lfoot 53.2328 -30.38
ltoes 46.3957
353
root -6.49771 18.0141 -3.90704 -164.421 -1.15549 -174.099
lowerback -7.85219 14.2506 13.1541
upperback -12.1566 16.4167 3.03788
thorax -6.14359 6.25999 -2.70676
lowerneck -7.41029 -17.1403 -3.62583
upperneck 11.615 -23.0821 -0.0909674
head 5.08536 -11.5737 -1.06858
rclavicle 7.196e-014 1.36764e-013
rhumerus 96.1767 29.7921 -58.0714
rradius 72.1767
rwrist 4.60619
rhand -46.3089 35.8381
rfingers 7.12502
rthumb -19.0428 6.75027
lclavicle 7.196e-014 1.36764e-013
lhumerus 64.7919 14.9686 60.0036
lradius 74.4422
lwrist 8.82416
lhand -31.882 14.1427
lfingers 7.12502
lthumb -185.135 -135.94
rfemur 10.8083 -8.53808 22.0282
rtibia 19.3298
rfoot 25.1062 -25.489
rtoes 16.2626
lfemur -27.9939 -15.0011 -13.2231
ltibia 22.6289
lfoot 53.3083 -30.2127
ltoes 46.2251
354
root -6.48896 18.0125 -3.89104 -164.449 -0.948858 -174.092
lowerback -7.79033 14.1164 13.1115
upperback -11.9513 16.269 3.15426
thorax -6.00804 6.22478 -2.58505
lowerneck -7.47422 -16.9068 -3.38398
upperneck 11.3662 -22.7207 -0.32374
head 4.95745 -11.3989 -1.11726
rclavicle 3.49861e-014 -2.8625e-014
rhumerus 95.5905 29.778 -58.5863
rradius 71.1524
rwrist 4.04664
rhand -45.9774 35.5433
rfingers 7.12502
rthumb -18.7239 6.42449
lclavicle 3.49861e-014 -2.8625e-014
lhumerus 64.7244 14.3833 59.6985
lradius 73.1138
lwrist 9.39619
lhand -31.5532 14.2255
lfingers 7.12502
lthumb -184.817 -135.849
rfemur 10.6918 -8.42195 22.0618
rtibia 19.5294
rfoot 25.0985 -25.0856
rtoes 14.7148
lfemur -27.9422 -14.8546 -13.2003
ltibia 22.4994
lfoot 53.3475 -30.065
ltoes 46.1153
